<?xml version="1.0" encoding="utf-8"?>
<svg version="1.1" xmlns="http://www.w3.org/2000/svg" xmlns:xlink="http://www.w3.org/1999/xlink" x="0px" y="0px"
	 viewBox="0 0 24 24" style="enable-background:new 0 0 24 24;" xml:space="preserve">
	<path d="M12,23c-0.5,0-1.1-0.1-1.6-0.4l-3.9-2.1c-2.3-1.2-3.7-3.6-3.7-6.2V8.6h18.4v5.7c0,2.5-1.4,4.9-3.7,6.2l-3.9,2.1
		C13.1,22.9,12.5,23,12,23z M4.8,10.6v3.7c0,1.6,1,3.1,2.5,3.9l3.9,2.1c0.5,0.3,1.1,0.3,1.6,0l3.9-2.1c1.5-0.8,2.5-2.3,2.5-3.9
		v-3.7H4.8z"/>
	<path d="M21.1,10.3H2.9c-0.6,0-1.1-0.5-1.1-1.1V8.4c0-3.3,2.7-6,6-6H9.6c0.3-2.3,2.1-4.1,4.4-4.4c0.3-0.1,0.7,0.1,0.9,0.3
		c0.3,0.2,0.4,0.6,0.4,0.9V0.1c0,0.6-0.4,1.1-1,1.1c-0.7,0.1-1.2,0.6-1.5,1.2h1.9c3.3,0,6,2.7,6,6v0.8
		C22.2,9.8,21.7,10.3,21.1,10.3z M3.8,8.3h15.5V8.4c0-2.6-2.1-4.7-4.7-4.7h-2.4c-0.4,0-0.7-0.2-0.9-0.4s-0.3-0.6-0.2-1
		c0.3-1.2,1.2-2.1,2.5-2.4V0.5c-1.6,0.3-2.9,1.7-3.1,3.4c-0.1,0.6-0.6,1-1.1,1H7.8c-2.6,0-4.7,2.1-4.7,4.7V8.3z"/>
	<path d="M17.7,14.4l-1.2-1c-0.2-0.2-0.6-0.2-0.9,0l-1,0.9c-0.4,0.4-1.1,0.1-1.1-0.5V9.4h5.2v4.4
		C18.7,14.2,18.1,14.7,17.7,14.4z"/>
</svg>